<?xml version="1.0" standalone="no"?><!DOCTYPE svg PUBLIC "-//W3C//DTD SVG 1.1//EN" "http://www.w3.org/Graphics/SVG/1.1/DTD/svg11.dtd"><svg t="1638441086087" class="icon" viewBox="0 0 1024 1024" version="1.1" xmlns="http://www.w3.org/2000/svg" p-id="15362" xmlns:xlink="http://www.w3.org/1999/xlink" width="200" height="200"><defs><style type="text/css"></style></defs><path d="M504.603543 974.541565c-29.15297 0-53.401234-4.859681-72.205509-14.486946-14.366196-7.355525-21.508873-15.46625-24.460088-19.59222-13.867846-15.7231-20.066011-33.679054-20.066011-58.002019l0.00921-99.921757c0.00921-1.292436-0.057305-18.423605-9.259898-41.974997-12.772908-32.689517-36.192294-61.701271-69.605288-86.228897l-0.518816-0.394996c-39.271422-31.001061-71.731718-70.971401-93.871971-115.593691-23.248494-46.856168-35.036981-97.326653-35.036981-150.010549 0-90.50734 35.244712-175.59832 99.243305-239.59589 63.998593-63.99757 149.087527-99.242282 239.594867-99.242282s175.59525 35.244712 239.59282 99.242282c63.996546 63.998593 99.241258 149.087527 99.241258 239.59589 0 53.150524-11.971659 104.036471-35.582403 151.244656-22.499433 44.985564-55.443753 85.146239-95.27083 116.14116l-0.572028 0.445138-0.603751 0.399089c-89.865727 59.358923-94.763271 113.971751-94.904487 116.187209 0 12.08013 0.013303 17.45658 0.022513 21.61018 0.01535 6.166443 0.023536 9.564843-0.022513 27.367301-0.080841 30.652114-13.596669 53.782927-39.084157 66.889433-16.180518 8.320503-36.524868 12.364609-62.199621 12.364609-1.65264 0-3.327792 0.005117-5.019317 0.00921-17.451464 0.053212-37.22481 0.105401-55.349609-4.793166-9.93835-2.687202-15.817244-12.921287-13.131065-22.859637 2.686179-9.939373 12.921287-15.812127 22.859637-13.132088 13.293771 3.593851 29.668717 3.546779 45.515636 3.502777 1.727341-0.005117 3.437286-0.010233 5.125741-0.010233 56.628742 0 63.950498-22.48306 64.001663-42.069141 0.047072-17.709337 0.038886-21.071921 0.023536-27.179013-0.011256-4.204765-0.023536-9.657964-0.023536-21.998013l0.004093-0.36225c0.040932-2.097778 0.824785-21.287839 15.57472-48.878221 18.729573-35.031864 50.835805-67.780733 95.441723-97.348142 35.214013-27.541263 64.346517-63.131853 84.269265-102.964046 20.998243-41.983183 31.644721-87.258343 31.644721-134.567835 0-80.549547-31.366382-156.277276-88.322581-213.233476s-132.681882-88.322581-213.229382-88.322581c-80.548524 0-156.275229 31.366382-213.231429 88.322581-56.957223 56.9562-88.323605 132.683928-88.323605 213.233476 0 92.535533 41.724287 178.590468 114.478288 236.144278 93.355201 68.683289 93.956905 151.293775 93.805456 158.89694l0 99.081623c0 15.694447 3.061732 24.89704 11.296277 33.957393l1.841951 2.026146 0.24764 0.641613c2.556219 2.87549 20.391423 20.231787 75.916017 17.968234l1.653663-0.067538 0.517793 0.091074c2.074242 0.00921 13.631462-0.162706 47.923476-5.074575 5.081739-0.87595 37.96773-6.062066 62.167898 1.74883 9.797134 3.160993 15.176654 13.666254 12.014638 23.465434-3.160993 9.797134-13.661138 15.181771-23.465434 12.014638-13.623275-4.3951-37.323047-1.738597-44.549635-0.459464l-0.598634 0.096191c-36.087916 5.176906-50.071396 5.600555-54.904471 5.467525C511.611144 974.473003 508.071528 974.541565 504.603543 974.541565z" p-id="15363"></path><path d="M285.930171 376.969631c-1.134847 0-2.284019-0.104377-3.440355-0.319272-10.120498-1.888-16.794501-11.623735-14.905478-21.744233 8.314363-44.562938 25.111934-86.170568 49.925063-123.669624 5.681396-8.585539 17.246803-10.940167 25.833365-5.258771 8.585539 5.681396 10.940167 17.246803 5.258771 25.833365-22.045085 33.314757-36.972053 70.302159-44.366464 109.933785C302.561967 370.709043 294.730605 376.969631 285.930171 376.969631z" p-id="15364"></path></svg>