<?xml version="1.0" standalone="no"?><!DOCTYPE svg PUBLIC "-//W3C//DTD SVG 1.1//EN" "http://www.w3.org/Graphics/SVG/1.1/DTD/svg11.dtd"><svg t="1639121381727" class="icon" viewBox="0 0 1024 1024" version="1.1" xmlns="http://www.w3.org/2000/svg" p-id="8960" xmlns:xlink="http://www.w3.org/1999/xlink" width="200" height="200"><defs><style type="text/css"></style></defs><path d="M988.72 10H35.28C15.79 10 0 25.8 0 45.28v677.33c0 19.48 15.79 35.28 35.28 35.28h441.44v185.54H245.3c-19.49 0-35.28 15.8-35.28 35.28S225.81 1014 245.3 1014h533.4c19.49 0 35.28-15.8 35.28-35.28s-15.79-35.28-35.28-35.28H547.28V757.89h441.44c19.49 0 35.28-15.8 35.28-35.28V45.28C1024 25.8 1008.21 10 988.72 10z m-35.28 677.33H70.56V80.57h882.87v606.76z" p-id="8961"></path><path d="M229.75 390.78v193.2c0 19.48 15.79 35.28 35.28 35.28s35.28-15.8 35.28-35.28v-193.2c28.32-13.31 48.06-41.89 48.06-75.25s-19.74-61.94-48.06-75.25v-56.36c0-19.48-15.79-35.28-35.28-35.28s-35.28 15.8-35.28 35.28v56.35c-28.32 13.31-48.06 41.89-48.06 75.25s19.73 61.95 48.06 75.26zM476.72 531.91v52.07c0 19.48 15.79 35.28 35.28 35.28s35.28-15.8 35.28-35.28v-52.07c28.32-13.31 48.06-41.89 48.06-75.25s-19.74-61.94-48.06-75.25v-197.5c0-19.48-15.79-35.28-35.28-35.28s-35.28 15.8-35.28 35.28V381.4c-28.32 13.31-48.06 41.89-48.06 75.25s19.73 61.95 48.06 75.26zM723.69 390.78v193.2c0 19.48 15.79 35.28 35.28 35.28 19.49 0 35.28-15.8 35.28-35.28v-193.2c28.32-13.31 48.06-41.89 48.06-75.25s-19.74-61.94-48.06-75.25v-56.36c0-19.48-15.79-35.28-35.28-35.28-19.49 0-35.28 15.8-35.28 35.28v56.35c-28.32 13.31-48.06 41.89-48.06 75.25s19.74 61.95 48.06 75.26z" p-id="8962"></path></svg>