<?xml version="1.0" standalone="no"?><!DOCTYPE svg PUBLIC "-//W3C//DTD SVG 1.1//EN" "http://www.w3.org/Graphics/SVG/1.1/DTD/svg11.dtd"><svg t="1638441147550" class="icon" viewBox="0 0 1024 1024" version="1.1" xmlns="http://www.w3.org/2000/svg" p-id="18285" xmlns:xlink="http://www.w3.org/1999/xlink" width="200" height="200"><defs><style type="text/css"></style></defs><path d="M768 960H256A106.666667 106.666667 0 0 1 149.333333 853.333333V170.666667A106.666667 106.666667 0 0 1 256 64h512A106.666667 106.666667 0 0 1 874.666667 170.666667v682.666666a106.666667 106.666667 0 0 1-106.666667 106.666667zM256 106.666667c-35.413333 0-64 28.586667-64 64v682.666666c0 35.413333 28.586667 64 64 64h512c35.413333 0 64-28.586667 64-64V170.666667c0-35.413333-28.586667-64-64-64H256z" fill="#666666" p-id="18286"></path><path d="M725.333333 362.666667H298.666667c-11.946667 0-21.333333-9.386667-21.333334-21.333334s9.386667-21.333333 21.333334-21.333333h426.666666c11.946667 0 21.333333 9.386667 21.333334 21.333333s-9.386667 21.333333-21.333334 21.333334zM725.333333 533.333333H298.666667c-11.946667 0-21.333333-9.386667-21.333334-21.333333s9.386667-21.333333 21.333334-21.333333h426.666666c11.946667 0 21.333333 9.386667 21.333334 21.333333s-9.386667 21.333333-21.333334 21.333333zM725.333333 704H298.666667c-11.946667 0-21.333333-9.386667-21.333334-21.333333s9.386667-21.333333 21.333334-21.333334h426.666666c11.946667 0 21.333333 9.386667 21.333334 21.333334s-9.386667 21.333333-21.333334 21.333333z" fill="#666666" p-id="18287"></path></svg>