<svg height="609" viewBox="0 0 1361 609" width="1361" xmlns="http://www.w3.org/2000/svg"><g fill="none" fill-rule="evenodd" transform="translate(-2 -9)"><g opacity=".8" transform="matrix(.99254615 -.12186934 .12186934 .99254615 0 534.061708)"><g fill="#cfdae6"><ellipse cx="63.574879" cy="32.468367" opacity=".25" rx="21.783048" ry="21.766008"/><ellipse cx="5.987465" cy="13.86686" opacity=".6" rx="5.217391" ry="5.21331"/><path d="m38.1354514 88.3520215c5.7629713 0 10.4347826-4.6681568 10.4347826-10.42662s-4.6718113-10.4266199-10.4347826-10.4266199-10.4347826 4.6681567-10.4347826 10.4266199 4.6718113 10.42662 10.4347826 10.42662z" opacity=".45"/></g><path d="m64.2775582 33.1704963 54.9082778-16.6050048" stroke="#cfdae6" stroke-linecap="round" stroke-linejoin="round" stroke-width="1.73913"/><path d="m42.1431708 26.5002681-34.43126918-11.9361979" style="stroke:#e0b4b7;stroke-width:.702679;opacity:.7;stroke-linecap:round;stroke-linejoin:round;stroke-dasharray:1.405358 2.108037"/><path d="m63.9262187 33.521561-20.2540861 35.8035341" stroke="#bacad9" stroke-dasharray="1.405358 2.108037" stroke-linecap="round" stroke-linejoin="round" stroke-width=".702679"/><g fill="#cfdae6" transform="matrix(.8660254 .5 -.5 .8660254 123.148084 .826724)"><ellipse cx="9.134827" cy="9.127681" opacity=".45" rx="9.134827" ry="9.127681"/><path d="m18.2696531 18.2553615c0-5.0410789-4.0898012-9.12768074-9.13482657-9.12768074-5.04502539 0-9.13482653 4.08660184-9.13482653 9.12768074z" transform="matrix(-1 0 0 -1 18.269654 27.383042)"/></g></g><g transform="matrix(.9961947 -.08715574 .08715574 .9961947 99 45.149501)"><ellipse cx="29.117647" cy="29.140244" fill="#cfdae6" opacity=".25" rx="29.117647" ry="29.140244"/><ellipse cx="29.117647" cy="29.140244" fill="#cfdae6" opacity=".3" rx="21.568628" ry="21.585366"/><ellipse cx="179.019608" cy="138.146341" opacity=".4" rx="23.72549" ry="23.743902" stroke="#cfdae6"/><ellipse cx="29.117647" cy="29.140244" fill="#bacad9" opacity=".5" rx="10.784314" ry="10.792683"/><path d="m29.1176471 39.9329268v-21.5853658c-5.956012 0-10.7843138 4.8320487-10.7843138 10.7926829s4.8283018 10.7926829 10.7843138 10.7926829z" fill="#bacad9"/><g fill="#e6a1a6" opacity=".45" transform="translate(172 131)"><ellipse cx="7.019608" cy="7.146341" rx="6.470588" ry="6.47561"/><path d="m.54901961 13.6219512c3.5736072 0 6.47058823-2.8992292 6.47058823-6.47560974 0-3.57638051-2.89698103-6.47560975-6.47058823-6.47560975z" transform="matrix(-1 0 0 1 7.568628 0)"/></g><ellipse cx="218.382353" cy="138.685976" fill="#cfdae6" rx="1.617647" ry="1.618902"/><ellipse cx="179.558824" cy="175.381098" fill="#e0b4b7" opacity=".35" rx="1.617647" ry="1.618902"/><ellipse cx="180.098039" cy="102.530488" fill="#e0b4b7" opacity=".35" rx="2.156863" ry="2.158537"/><path d="m28.9985381 29.9671598 142.1524799 102.9088642" opacity=".8" stroke="#cfdae6"/></g><g opacity=".8" transform="matrix(.98162718 -.190809 .190809 .98162718 1021 10.494495)"><ellipse cx="43.813559" cy="32" rx="11.186441" ry="11.294118" stroke="#cfdae6" stroke-width=".941176"/><g fill="#bacad9" transform="translate(34.596774 23.111111)"><ellipse cx="9.185347" cy="8.888889" opacity=".45" rx="8.474576" ry="8.55615"/><path d="m9.18534718 17.4450386c4.68037922 0 8.47457632-3.8307187 8.47457632-8.55614971 0-4.72543102-3.7941971-8.55614973-8.47457632-8.55614973z"/></g><path d="m34.6597385 24.809694-28.94307766-20.04090455" stroke="#cfdae6" stroke-width=".941176"/><ellipse cx="3.262712" cy="3.294118" rx="3.262712" ry="3.294118" stroke="#cfdae6" stroke-width=".941176"/><ellipse cx="2.79661" cy="61.176471" fill="#f7e1ad" rx="2.79661" ry="2.823529"/><path d="m34.6312443 39.2922712-29.56757767 20.4928108" stroke="#cfdae6" stroke-width=".941176"/></g><g opacity=".33" transform="matrix(.98480775 -.17364818 .17364818 .98480775 1124 353.621489)"><g fill="#bacad9" transform="matrix(.08715574 -.9961947 .9961947 .08715574 128.333334 115.411209)"><circle cx="11.666667" cy="11.666667" opacity=".45" r="11.666667"/><path d="m23.3333333 23.3333333c0-6.443322-5.2233446-11.6666666-11.6666666-11.6666666-6.44332211 0-11.6666667 5.2233446-11.6666667 11.6666666z" transform="matrix(-1 0 0 -1 23.333334 35)"/></g><circle cx="201.833333" cy="87.5" fill="#cfdae6" r="5.833333"/><g stroke-width="1.166667"><path d="m143.5 88.8126685 11.570501-71.2088141" stroke="#bacad9"/><path d="m17.5 37.3333333 109.966252 60.3116402" stroke="#bacad9"/><path d="m143.902597 120.302281 31.032858 111.269061-136.435455-84.060495 87.866941-36.677514" stroke="#cfdae6"/><path d="m159.833333 99.7453842 35.583334-10.4953842" opacity=".6" stroke="#e0b4b7"/><path d="m205.333333 82.1372105 33.386073-45.9705438" stroke="#bacad9"/><path d="m266.723424 132.231988-59.640091-41.8153213" stroke="#cfdae6"/></g><circle cx="156.916667" cy="8.75" fill="#c1d1e0" r="8.75"/><circle cx="39.083333" cy="148.75" fill="#c1d1e0" r="5.25"/><circle cx="8.75" cy="33.25" fill="#d1deed" fill-opacity=".6" r="8.75"/><circle cx="243.833333" cy="30.333333" fill="#d1deed" fill-opacity=".6" r="5.833333"/><circle cx="175.583333" cy="232.75" fill="#e0b4b7" r="5.25"/></g></g></svg>
